<svg xmlns="http://www.w3.org/2000/svg" width="20" height="20" viewBox="0 0 20 20">
  <g id="clock" transform="translate(-1.5 -1.5)">
    <path id="Path_38" data-name="Path 38" d="M11.5,21.5a10,10,0,1,1,10-10A9.971,9.971,0,0,1,11.5,21.5Zm0-18.182A8.182,8.182,0,1,0,19.682,11.5,8.148,8.148,0,0,0,11.5,3.318Z" fill="#7d4c21"/>
    <path id="Path_39" data-name="Path 39" d="M21.1,16.7c-.184,0-.276,0-.368-.092l-3.68-1.84a.884.884,0,0,1-.552-.828V8.42a.92.92,0,1,1,1.84,0v4.967l3.128,1.564a.812.812,0,0,1,.368,1.2A.7.7,0,0,1,21.1,16.7Z" transform="translate(-5.949 -2.4)" fill="#7d4c21"/>
  </g>
</svg>
