<svg xmlns="http://www.w3.org/2000/svg" width="36" height="40" viewBox="0 0 36 40">
  <path id="Icon" d="M18,40h0l-1.144-.789C5.513,31.384,0,24.382,0,17.806a18,18,0,0,1,36,0c0,6.432-5.267,13.262-16.1,20.88L18,40ZM18,3.956A13.941,13.941,0,0,0,4,17.806c0,2.412,1.168,5.094,3.473,7.971A52.725,52.725,0,0,0,18,35.163a52.726,52.726,0,0,0,10.528-9.386C30.832,22.9,32,20.218,32,17.806A13.941,13.941,0,0,0,18,3.956ZM18,24a8,8,0,1,1,8-8A8.008,8.008,0,0,1,18,24Zm0-12a4,4,0,1,0,4,4A4,4,0,0,0,18,12Z" fill="#fff"/>
</svg>
