<svg xmlns="http://www.w3.org/2000/svg" width="20" height="22" viewBox="0 0 20 22">
  <path id="Icon" d="M10,22h0l-.635-.434C3.063,17.261,0,13.41,0,9.793A9.909,9.909,0,0,1,10,0,9.909,9.909,0,0,1,20,9.793c0,3.537-2.926,7.294-8.946,11.484L10,22ZM10,2.176A7.708,7.708,0,0,0,2.222,9.793a7.264,7.264,0,0,0,1.929,4.384A29.193,29.193,0,0,0,10,19.34a29.193,29.193,0,0,0,5.849-5.162,7.264,7.264,0,0,0,1.929-4.384A7.708,7.708,0,0,0,10,2.176ZM10,13.2a4.4,4.4,0,1,1,4.444-4.4A4.427,4.427,0,0,1,10,13.2Zm0-6.6a2.2,2.2,0,1,0,2.222,2.2A2.213,2.213,0,0,0,10,6.6Z" fill="#7d4c21"/>
</svg>
