<svg xmlns="http://www.w3.org/2000/svg" width="29.999" height="30" viewBox="0 0 29.999 30">
  <path id="Icon" d="M23.7,30H4.5A4.5,4.5,0,0,1,0,25.5v-9A4.5,4.5,0,0,1,4.5,12H6.572l4.758-9.512A4.515,4.515,0,0,1,15.056.009l.3-.009h.4a3.758,3.758,0,0,1,3.742,3.5l.007.247V12h6a4.5,4.5,0,0,1,4.456,5.122l-.043.261-1.8,9a4.5,4.5,0,0,1-4.146,3.609ZM15.354,3a1.5,1.5,0,0,0-1.247.667l-.093.162L9.159,13.538a1.483,1.483,0,0,0-.149.5L9,14.209V27H23.7a1.5,1.5,0,0,0,1.426-1.035l.045-.17,1.8-9a1.5,1.5,0,0,0-1.176-1.764l-.147-.022L25.5,15h-6a3.01,3.01,0,0,1-2.992-2.776L16.5,12V3.75a.749.749,0,0,0-.614-.738L15.751,3ZM4.5,15A1.5,1.5,0,0,0,3,16.5v9A1.5,1.5,0,0,0,4.5,27H6V15Z" fill="#7d4c21"/>
</svg>
