<svg xmlns="http://www.w3.org/2000/svg" width="18.182" height="20" viewBox="0 0 18.182 20">
  <g id="share-2" transform="translate(-3 -1.5)">
    <path id="Path_36" data-name="Path 36" d="M17.545,8.773a3.636,3.636,0,1,1,3.636-3.636A3.647,3.647,0,0,1,17.545,8.773Zm0-5.455a1.818,1.818,0,1,0,1.818,1.818A1.824,1.824,0,0,0,17.545,3.318ZM6.636,15.136A3.636,3.636,0,1,1,10.273,11.5,3.647,3.647,0,0,1,6.636,15.136Zm0-5.455A1.818,1.818,0,1,0,8.455,11.5,1.824,1.824,0,0,0,6.636,9.682ZM17.545,21.5a3.636,3.636,0,1,1,3.636-3.636A3.647,3.647,0,0,1,17.545,21.5Zm0-5.455a1.818,1.818,0,1,0,1.818,1.818A1.824,1.824,0,0,0,17.545,16.045Z" fill="#fff"/>
    <path id="Path_37" data-name="Path 37" d="M18.488,20.046a.825.825,0,0,1-.456-.091l-6.2-3.629a1,1,0,0,1-.365-1.27,1.012,1.012,0,0,1,1.276-.363l6.2,3.629a1,1,0,0,1,.365,1.27A.959.959,0,0,1,18.488,20.046Zm-6.2-6.351a1.089,1.089,0,0,1-.821-.454.916.916,0,0,1,.365-1.27l6.2-3.629a1.012,1.012,0,0,1,1.276.363.916.916,0,0,1-.365,1.27l-6.2,3.629C12.561,13.6,12.47,13.7,12.288,13.7Z" transform="translate(-3.297 -2.649)" fill="#fff"/>
  </g>
</svg>
