<svg id="instagram" xmlns="http://www.w3.org/2000/svg" width="40" height="40" viewBox="0 0 40 40">
  <path id="Path_15" data-name="Path 15" d="M215.253,211.127A4.127,4.127,0,1,1,211.127,207,4.126,4.126,0,0,1,215.253,211.127Zm0,0" transform="translate(-191.127 -191.127)" fill="#fff"/>
  <path id="Path_16" data-name="Path 16" d="M155.239,138.33a4.09,4.09,0,0,0-2.344-2.344,6.834,6.834,0,0,0-2.293-.425c-1.3-.059-1.693-.072-4.991-.072s-3.689.012-4.991.072a6.838,6.838,0,0,0-2.293.425,4.092,4.092,0,0,0-2.344,2.344,6.835,6.835,0,0,0-.425,2.293c-.059,1.3-.072,1.693-.072,4.991s.013,3.688.072,4.991a6.832,6.832,0,0,0,.425,2.293,4.09,4.09,0,0,0,2.344,2.344,6.827,6.827,0,0,0,2.294.425c1.3.059,1.693.072,4.991.072s3.689-.013,4.991-.072a6.827,6.827,0,0,0,2.293-.425,4.09,4.09,0,0,0,2.344-2.344,6.838,6.838,0,0,0,.425-2.293c.059-1.3.072-1.693.072-4.991s-.012-3.689-.072-4.991A6.823,6.823,0,0,0,155.239,138.33Zm-9.628,13.626a6.342,6.342,0,1,1,6.342-6.342A6.342,6.342,0,0,1,145.61,151.956ZM152.2,140.5a1.482,1.482,0,1,1,1.482-1.482A1.482,1.482,0,0,1,152.2,140.5Zm0,0" transform="translate(-125.61 -125.614)" fill="#fff"/>
  <path id="Path_17" data-name="Path 17" d="M20,0A20,20,0,1,0,40,20,20,20,0,0,0,20,0ZM31.415,24.735a8.426,8.426,0,0,1-.534,2.788,5.872,5.872,0,0,1-3.359,3.359,8.432,8.432,0,0,1-2.787.534c-1.225.056-1.616.069-4.735.069s-3.51-.013-4.735-.069a8.432,8.432,0,0,1-2.787-.534,5.872,5.872,0,0,1-3.359-3.359,8.424,8.424,0,0,1-.534-2.787c-.056-1.225-.07-1.616-.07-4.735s.013-3.51.069-4.735a8.427,8.427,0,0,1,.533-2.788,5.876,5.876,0,0,1,3.359-3.359,8.434,8.434,0,0,1,2.788-.534c1.225-.056,1.616-.069,4.735-.069s3.51.013,4.735.07a8.435,8.435,0,0,1,2.788.533,5.874,5.874,0,0,1,3.359,3.359,8.425,8.425,0,0,1,.534,2.788c.056,1.225.069,1.616.069,4.735S31.471,23.51,31.415,24.735Zm0,0" fill="#fff"/>
</svg>
