<svg xmlns="http://www.w3.org/2000/svg" width="40" height="40" viewBox="0 0 40 40">
  <path id="snapchat" d="M20,0A20,20,0,1,0,40,20,20,20,0,0,0,20,0ZM31.978,26.458c-.144.336-.792.813-3.057,1.162-.186.028-.257.27-.368.775-.04.184-.081.365-.137.555a.3.3,0,0,1-.324.242h-.028a2.84,2.84,0,0,1-.507-.064,6.786,6.786,0,0,0-1.361-.144,6.044,6.044,0,0,0-.982.082,4.707,4.707,0,0,0-1.868.953A5.274,5.274,0,0,1,20.114,31.3c-.062,0-.123,0-.184,0-.039,0-.08,0-.12,0a5.27,5.27,0,0,1-3.231-1.275,4.719,4.719,0,0,0-1.87-.954,6.036,6.036,0,0,0-.981-.082,6.728,6.728,0,0,0-1.361.153,2.978,2.978,0,0,1-.507.073.319.319,0,0,1-.352-.252c-.056-.193-.1-.378-.137-.559-.1-.463-.173-.748-.367-.778-2.265-.35-2.913-.827-3.058-1.165a.435.435,0,0,1-.035-.145.255.255,0,0,1,.213-.266c3.481-.573,5.042-4.132,5.107-4.283l.005-.012a1.329,1.329,0,0,0,.125-1.114c-.239-.563-1.018-.81-1.534-.974-.126-.04-.246-.078-.34-.115-1.029-.407-1.115-.824-1.074-1.037a.972.972,0,0,1,.946-.616.661.661,0,0,1,.281.056,3,3,0,0,0,1.241.327,1.023,1.023,0,0,0,.741-.237c-.013-.236-.029-.482-.045-.736-.1-1.646-.233-3.691.289-4.858a6.3,6.3,0,0,1,5.847-3.771l.428,0H20.2a6.309,6.309,0,0,1,5.858,3.774c.521,1.168.392,3.215.288,4.86l0,.072c-.014.229-.028.451-.04.665a.992.992,0,0,0,.676.235h0a3.112,3.112,0,0,0,1.169-.325.875.875,0,0,1,.363-.072,1.115,1.115,0,0,1,.418.08l.008,0a.768.768,0,0,1,.583.625c0,.241-.18.6-1.082.96-.094.037-.213.075-.34.115-.516.164-1.3.411-1.534.974a1.326,1.326,0,0,0,.125,1.114l.006.013c.065.151,1.624,3.709,5.107,4.283a.255.255,0,0,1,.213.266.427.427,0,0,1-.035.146Zm0,0" fill="#fff"/>
</svg>
