<svg id="facebook" xmlns="http://www.w3.org/2000/svg" width="40" height="40" viewBox="0 0 40 40">
  <path id="Path_3" data-name="Path 3" d="M291.4,508.668q-.27.044-.541.081Q291.127,508.712,291.4,508.668Zm0,0" transform="translate(-268.155 -468.949)" fill="#fff"/>
  <path id="Path_4" data-name="Path 4" d="M299.6,507.793l-.258.045Zm0,0" transform="translate(-275.965 -468.147)" fill="#fff"/>
  <path id="Path_5" data-name="Path 5" d="M278.244,510.34q-.315.035-.634.062Q277.928,510.376,278.244,510.34Zm0,0" transform="translate(-255.947 -470.48)" fill="#fff"/>
  <path id="Path_6" data-name="Path 6" d="M286.75,509.738l-.3.038Zm0,0" transform="translate(-264.079 -469.929)" fill="#fff"/>
  <path id="Path_7" data-name="Path 7" d="M306.892,506.41l-.228.048Zm0,0" transform="translate(-282.716 -466.881)" fill="#fff"/>
  <path id="Path_8" data-name="Path 8" d="M324.668,502.113l-.184.051Zm0,0" transform="translate(-299.142 -462.946)" fill="#fff"/>
  <path id="Path_9" data-name="Path 9" d="M319.259,503.543l-.2.052Zm0,0" transform="translate(-294.142 -464.255)" fill="#fff"/>
  <path id="Path_10" data-name="Path 10" d="M312.279,505.254l-.212.048Zm0,0" transform="translate(-287.696 -465.822)" fill="#fff"/>
  <path id="Path_11" data-name="Path 11" d="M273.821,511.09l-.341.026Zm0,0" transform="translate(-252.128 -471.167)" fill="#fff"/>
  <path id="Path_12" data-name="Path 12" d="M40,20A20,20,0,1,0,20,40c.118,0,.234,0,.352,0V24.426h-4.3V19.419h4.3V15.734c0-4.274,2.609-6.6,6.421-6.6a35.371,35.371,0,0,1,3.852.2V13.8H28c-2.074,0-2.476.986-2.476,2.432v3.189H30.48l-.646,5.008H25.521v14.8A20.011,20.011,0,0,0,40,20Zm0,0" fill="#fff"/>
  <path id="Path_13" data-name="Path 13" d="M265.566,511.43q-.337.022-.676.034Q265.23,511.452,265.566,511.43Zm0,0" transform="translate(-244.222 -471.478)" fill="#fff"/>
  <path id="Path_14" data-name="Path 14" d="M260.862,511.836l-.358.009Zm0,0" transform="translate(-240.165 -471.85)" fill="#fff"/>
</svg>
