<svg id="tag" xmlns="http://www.w3.org/2000/svg" width="91.936" height="100" viewBox="0 0 91.936 100">
  <path id="Path_17" data-name="Path 17" d="M78.911,31.619,57.685,14.638a4.871,4.871,0,0,0-6.12,0L30.339,31.619A4.871,4.871,0,0,0,28.5,35.443V89.389a4.9,4.9,0,0,0,4.9,4.9H75.851a4.9,4.9,0,0,0,4.9-4.9V35.443a4.871,4.871,0,0,0-1.839-3.824ZM54.625,24.077a4.082,4.082,0,1,1-4.082,4.082,4.082,4.082,0,0,1,4.082-4.082ZM70.953,81.225H38.3a1.633,1.633,0,1,1,0-3.266H70.953a1.633,1.633,0,1,1,0,3.266Z" transform="translate(11.186 5.712)" fill="#bf8b4a" opacity="0.2"/>
  <path id="Path_18" data-name="Path 18" d="M54.117,1H8.4A4.9,4.9,0,0,0,3.5,5.9V74.15a4.9,4.9,0,0,0,7.988,3.8L30.229,62.72a1.633,1.633,0,0,1,2.057,0L51.028,77.946a4.9,4.9,0,0,0,7.988-3.8V5.9A4.9,4.9,0,0,0,54.117,1ZM8.4,4.266H54.117A1.633,1.633,0,0,1,55.75,5.9v8.164H6.766V5.9A1.633,1.633,0,0,1,8.4,4.266Zm44.69,71.148L34.347,60.188a4.916,4.916,0,0,0-6.179,0L9.427,75.413A1.633,1.633,0,0,1,6.766,74.15V17.328H55.75V74.15a1.633,1.633,0,0,1-2.661,1.264Z" transform="translate(-3.5 -1)" fill="#7d4c21"/>
</svg>
