<svg id="customer-support" xmlns="http://www.w3.org/2000/svg" width="96.931" height="100" viewBox="0 0 96.931 100">
  <g id="Group_22" data-name="Group 22" transform="translate(16.155 28.08)" opacity="0.2">
    <path id="Path_31" data-name="Path 31" d="M82.2,18.5H25.66a5.477,5.477,0,0,0-5.67,5.267V27.29h49a9.144,9.144,0,0,1,9.435,8.788V70.359l6.2,5.784A1.906,1.906,0,0,0,87.858,74.9V23.768A5.477,5.477,0,0,0,82.2,18.5Z" transform="translate(-7.082 -18.498)" fill="#bf8b4a"/>
    <path id="Path_32" data-name="Path 32" d="M74.133,26H17.59A5.541,5.541,0,0,0,12,31.413V83.966a1.89,1.89,0,0,0,3.231,1.276l14.54-13.91H74.133A5.557,5.557,0,0,0,79.851,65.9V31.413A5.541,5.541,0,0,0,74.133,26Zm-13.2,34.491A1.842,1.842,0,0,1,59.06,62.3h-26.4a1.842,1.842,0,0,1-1.874-1.809V36.825a1.842,1.842,0,0,1,1.874-1.793h6.09V42.3a1.842,1.842,0,0,0,1.89,1.809h3.748a1.842,1.842,0,0,0,1.89-1.809v-7.27H59.06a1.842,1.842,0,0,1,1.874,1.793Z" transform="translate(-12 -13.881)" fill="#bf8b4a"/>
  </g>
  <path id="Path_33" data-name="Path 33" d="M2,30.008V36.47a8.078,8.078,0,0,0,6.464,7.916l0,15.46c0,11.664,8.078,17.4,19.677,17.771a4.847,4.847,0,0,0,4.556,3.231h9.693a4.847,4.847,0,0,0,0-9.693H32.695a4.847,4.847,0,0,0-4.54,3.231c-7.8-.307-16.462-3.166-16.462-14.54v-15.3h1.7a24.233,24.233,0,0,0,48.385,0H65a8.078,8.078,0,0,0,8.078-8.078V30.008A8.078,8.078,0,0,0,65,21.93H61.532a24.233,24.233,0,0,0-47.981,0H10.078A8.078,8.078,0,0,0,2,30.008ZM31.079,76a1.616,1.616,0,0,1,1.616-1.616h9.693a1.616,1.616,0,0,1,0,3.231H32.695A1.616,1.616,0,0,1,31.079,76ZM57.622,19.022c-6.349-2.811-20.711-7.738-26.333,2.1a8.288,8.288,0,0,1-5.654,4.572c-3.667.63-7.448-1.745-8.966-2.843a21,21,0,0,1,40.953-3.829ZM65,41.316H61.774V25.161H65a4.847,4.847,0,0,1,4.847,4.847V36.47A4.847,4.847,0,0,1,65,41.316ZM16.54,42.932V26.615a14.54,14.54,0,0,0,9.693,2.262,11.309,11.309,0,0,0,7.916-6.139c4.992-8.74,20.775-1.535,24.33.242.194,1.939,0,1.616.113,19.952a21,21,0,0,1-42,0ZM5.231,30.008a4.847,4.847,0,0,1,4.847-4.847h3.231V41.316H10.078A4.847,4.847,0,0,1,5.231,36.47Z" transform="translate(-2 -1.116)" fill="#7d4c21"/>
</svg>
